<?xml version="1.0" encoding="UTF-8"?> <!-- Generator: Adobe Illustrator 22.1.0, SVG Export Plug-In . SVG Version: 6.00 Build 0) --> <svg xmlns:cc="http://creativecommons.org/ns#" xmlns:dc="http://purl.org/dc/elements/1.1/" xmlns:rdf="http://www.w3.org/1999/02/22-rdf-syntax-ns#" xmlns:svg="http://www.w3.org/2000/svg" xmlns="http://www.w3.org/2000/svg" xmlns:xlink="http://www.w3.org/1999/xlink" id="svg3430" x="0px" y="0px" viewBox="0 0 483 230.5" style="enable-background:new 0 0 483 230.5;" xml:space="preserve"> <style type="text/css"> .st0{fill:#777BB3;} </style> <title id="title3510">Official PHP Logo</title> <g> <path class="st0" d="M161.9,66.4c-10.5-12.1-27.3-18.1-50.2-18.1H35.4L0,230.5h39.7l9.4-48.4h34c15,0,27.3-1.6,37-4.7 c9.7-3.1,18.5-8.4,26.4-15.8c6.6-6.1,12-12.9,16.2-20.2c4.1-7.4,7-15.5,8.8-24.4C175.5,95.3,172.4,78.5,161.9,66.4z M130.3,114.1 c-2.7,14.1-8,24.2-15.9,30.2c-7.8,6-19.8,9-35.8,9H54.5l14.8-76.2h27.2c15.1,0,25.1,2.8,30.2,8.3C131.8,91,133,100.5,130.3,114.1z"></path> <path class="st0" d="M208.2,182.1l20.3-104.4H260c10.1,0,16.7,1.7,19.8,5c3.1,3.3,3.8,9.6,2,18.8l-15.7,80.6h40l16.5-84.8 c3.3-17.2,0.8-29.7-7.5-37.4c-8.4-7.7-23.6-11.5-45.7-11.5h-35.1L243.7,0h-39.4l-35.5,182.1H208.2z"></path> <path class="st0" d="M421.4,48.3h-76.3l-35.4,182.2h39.7l9.4-48.4h34c15,0,27.3-1.6,37-4.7c9.7-3.1,18.5-8.4,26.4-15.8 c6.7-6.1,12-12.9,16.2-20.2c4.1-7.4,7-15.5,8.8-24.4c4.2-21.6,1-38.4-9.5-50.5C461.1,54.3,444.3,48.3,421.4,48.3z M440.1,114.1 c-2.7,14.1-8,24.2-15.9,30.2c-7.8,6-19.8,9-35.8,9h-24.1l14.8-76.2h27.2c15.1,0,25.1,2.8,30.2,8.3 C441.5,91,442.7,100.5,440.1,114.1z"></path> </g> </svg> 