<?xml version="1.0" encoding="UTF-8"?> <!-- Generator: Adobe Illustrator 22.1.0, SVG Export Plug-In . SVG Version: 6.00 Build 0) --> <svg xmlns="http://www.w3.org/2000/svg" xmlns:xlink="http://www.w3.org/1999/xlink" id="Layer_1" x="0px" y="0px" viewBox="0 0 431 294.9" style="enable-background:new 0 0 431 294.9;" xml:space="preserve"> <style type="text/css"> .st0{fill:#FB503B;} </style> <path class="st0" d="M429.3,137.8c-2.9-3.2-42.3-52.6-49.3-61s-10.3-6.9-14.6-6.2s-54.2,9-60,10s-9.4,3.3-5.9,8.3 c3.2,4.4,36,51,43.2,61.2l-130.5,31.3L108.6,7.9c-4.1-6.1-5-8.3-14.4-7.8C84.8,0.5,12.8,6.5,7.7,6.9C2.6,7.3-3.1,9.6,2.1,21.7 C7.2,33.8,89,210,91.3,215.1c2.3,5.1,8.2,13.4,22.1,10.1c14.2-3.4,63.5-16.3,90.4-23.3c14.2,25.8,43.3,78,48.6,85.5 c7.2,10,12.1,8.3,23.1,5c8.6-2.6,134.4-47.8,140.1-50.2c5.7-2.3,9.2-4,5.3-9.7c-2.8-4.2-36-48.6-53.4-71.9 c11.9-3.2,54.2-14.4,58.8-15.7C431.5,143.6,432.2,141,429.3,137.8z M192.1,186.3c-1.6,0.3-74.6,17.8-78.5,18.7 c-3.9,0.9-3.9,0.4-4.3-0.9c-0.4-1.3-86.9-179.6-88.1-181.8c-1.2-2.2-1.1-4,0-4s69-6.1,71.4-6.2s2.1,0.4,3,1.9 c0,0,95.7,165.2,97.4,168.1C194.7,185.1,193.7,186,192.1,186.3z M398.2,224.9c1.2,1.8,2.3,3-1.3,4.3c-3.7,1.3-123.7,41.8-126,42.8 s-4.2,1.3-7.2-3s-42-71.9-42-71.9L348.9,164c3.2-1,4.2-1.7,6.2,1.5S397,223.1,398.2,224.9z M406.3,134.6 c-2.9,0.6-49.6,12.2-49.6,12.2l-38.2-52.4c-1.1-1.5-2-3,0.7-3.4s46.1-8.2,48-8.6c2-0.4,3.7-1,6.1,2.3s35.4,45.1,36.7,46.7 C411.3,133,409.2,134,406.3,134.6z"></path> </svg> 