<svg id="svg2" xmlns="http://www.w3.org/2000/svg" viewBox="0 0 2194.92 165.25"><title>logo-long-white</title><path d="M0,82.63C0,30,19.68,0,61.34,0,93.15,0,109,17.85,115.81,42.8L88.35,50.58c-4.12-14.87-10.3-26.09-27.47-26.09-20.6,0-29.06,16.94-29.06,44.4V96.36c0,27.46,8.46,44.4,29.06,44.4,17.17,0,23.35-11.21,27.47-26.09l27.46,7.78c-6.86,25-22.66,42.8-54.47,42.8C19.68,165.25,0,135.27,0,82.63Z" style="fill:#fff"/><path d="M240.78,93.84H194.09v68.67h-30V2.75h30V69.12h46.69V2.75h30V162.51h-30Z" style="fill:#fff"/><path d="M512.45,47.84h-2.29V162.51H484.53V2.75h36.85l41.88,114.67h2.29V2.75h25.64V162.51H554.34Z" style="fill:#fff"/><path d="M640.85,82.63C640.85,30,660.53,0,702.19,0,734,0,749.8,17.85,756.66,42.8L729.2,50.58c-4.12-14.87-10.3-26.09-27.47-26.09-20.6,0-29.06,16.94-29.06,44.4V96.36c0,27.46,8.46,44.4,29.06,44.4,17.17,0,23.35-11.21,27.47-26.09l27.46,7.78c-6.86,25-22.66,42.8-54.47,42.8C660.53,165.25,640.85,135.27,640.85,82.63Z" style="fill:#fff"/><path d="M808.62,162.51V2.75H909.55V27.47H838.6V69.12H907V93.84H838.6v43.95h70.95v24.72Z" style="fill:#fff"/><polygon points="398.47 2.75 356.82 2.75 311.96 162.51 342.17 162.51 352.71 121.99 353.16 121.99 391.21 121.99 384.84 97.5 359.08 97.5 376.05 32.27 377.88 32.27 411.75 162.51 443.56 162.51 398.47 2.75" style="fill:#fff"/><path d="M1126.75,2.75h49.67c41.43,0,61.57,28.15,61.57,79.88s-20.14,79.88-61.57,79.88h-49.67Zm47.61,135.72c22,0,32.27-14.87,32.27-42.11V68.66c0-27-10.3-41.88-32.27-41.88h-18.08V138.47Z" style="fill:#fff"/><path d="M1288.11,162.51V140.07H1324V25.18h-35.93V2.75h101.62V25.18H1353.8V140.07h35.93v22.44Z" style="fill:#fff"/><path d="M1526.83,140.3H1525c-5.27,13-15.57,24.95-35.94,24.95-32.27,0-49.21-30-49.21-81.48,0-54.24,19.23-83.77,59.74-83.77,32.05,0,47.61,18.31,54,42.8l-27.47,7.78c-4.12-13.73-9.84-26.09-26.78-26.09-19.91,0-27.69,16.94-27.69,44.4V94.53c0,27.69,7.32,46.46,29.07,46.46,16.93,0,26.09-11.44,26.09-27.24v-13h-29.07V79h55.85v83.55h-26.78Z" style="fill:#fff"/><path d="M1608.54,162.51V140.07h35.93V25.18h-35.93V2.75h101.62V25.18h-35.94V140.07h35.94v22.44Z" style="fill:#fff"/><path d="M1834.44,27.47v135h-29.76v-135h-48.06V2.75H1882.5V27.47Z" style="fill:#fff"/><path d="M2094.21,162.51V2.75h30v135h70.73v24.72Z" style="fill:#fff"/><polygon points="2000.47 2.75 1958.82 2.75 1913.96 162.51 1944.17 162.51 1954.71 121.99 1955.16 121.99 1993.21 121.99 1986.84 97.5 1961.08 97.5 1978.05 32.27 1979.88 32.27 2013.75 162.51 2045.57 162.51 2000.47 2.75" style="fill:#fff"/></svg>