<svg id="svg2" xmlns="http://www.w3.org/2000/svg" viewBox="0 0 2777.03 470"><title>logo-long-box-white</title><path d="M0,0V470H470V0ZM211.33,180.35,143.18,235l68.15,54.64v42.12L90.65,235l120.68-96.76Zm47.34,151.41V289.64L326.82,235l-68.15-54.65V138.24L379.35,235Z" style="fill:#fff"/><path d="M582.11,235c0-52.64,19.68-82.63,61.34-82.63,31.82,0,47.61,17.86,54.47,42.8L670.46,203c-4.12-14.88-10.3-26.1-27.47-26.1-20.6,0-29.06,16.94-29.06,44.41v27.46c0,27.47,8.46,44.41,29.06,44.41,17.17,0,23.35-11.22,27.47-26.1l27.46,7.79c-6.86,24.94-22.65,42.8-54.47,42.8C601.79,317.63,582.11,287.64,582.11,235Z" style="fill:#fff"/><path d="M822.89,246.21H776.2v68.67h-30V155.12h30V221.5h46.69V155.12h30V314.88h-30Z" style="fill:#fff"/><path d="M1094.56,200.21h-2.29V314.88h-25.63V155.12h36.85l41.88,114.67h2.29V155.12h25.64V314.88h-36.85Z" style="fill:#fff"/><path d="M1223,235c0-52.64,19.68-82.63,61.34-82.63,31.82,0,47.61,17.86,54.47,42.8L1311.31,203c-4.12-14.88-10.3-26.1-27.47-26.1-20.6,0-29.06,16.94-29.06,44.41v27.46c0,27.47,8.46,44.41,29.06,44.41,17.17,0,23.35-11.22,27.47-26.1l27.46,7.79c-6.86,24.94-22.65,42.8-54.47,42.8C1242.64,317.63,1223,287.64,1223,235Z" style="fill:#fff"/><path d="M1390.73,314.88V155.12h100.93v24.72h-71V221.5h68.44v24.71h-68.44v44h71v24.72Z" style="fill:#fff"/><polygon points="980.59 155.12 938.93 155.12 894.07 314.88 924.28 314.88 934.82 274.37 935.27 274.37 973.32 274.37 966.95 249.88 941.19 249.88 958.15 184.65 959.99 184.65 993.86 314.88 1025.67 314.88 980.59 155.12" style="fill:#fff"/><path d="M1708.86,155.12h49.67c41.43,0,61.57,28.15,61.57,79.88s-20.14,79.88-61.57,79.88h-49.67Zm47.61,135.73c22,0,32.27-14.88,32.27-42.12V221c0-27-10.3-41.89-32.27-41.89h-18.08v111.7Z" style="fill:#fff"/><path d="M1870.22,314.88V292.45h35.93V177.55h-35.93V155.12h101.62v22.43h-35.93v114.9h35.93v22.43Z" style="fill:#fff"/><path d="M2108.94,292.68h-1.83c-5.27,13-15.57,24.95-35.94,24.95-32.27,0-49.21-30-49.21-81.49,0-54.24,19.23-83.77,59.74-83.77,32.05,0,47.61,18.31,54,42.8L2108.25,203c-4.12-13.74-9.84-26.1-26.78-26.1-19.91,0-27.69,16.94-27.69,44.41V246.9c0,27.7,7.32,46.46,29.07,46.46,16.93,0,26.09-11.44,26.09-27.23v-13h-29.07V231.34h55.85v83.54h-26.78Z" style="fill:#fff"/><path d="M2190.65,314.88V292.45h35.93V177.55h-35.93V155.12h101.62v22.43h-35.94v114.9h35.94v22.43Z" style="fill:#fff"/><path d="M2416.55,179.84v135h-29.76v-135h-48.06V155.12h125.88v24.72Z" style="fill:#fff"/><path d="M2676.32,314.88V155.12h30v135H2777v24.72Z" style="fill:#fff"/><polygon points="2582.59 155.12 2540.93 155.12 2496.07 314.88 2526.28 314.88 2536.82 274.37 2537.27 274.37 2575.32 274.37 2568.95 249.88 2543.19 249.88 2560.16 184.65 2561.99 184.65 2595.86 314.88 2627.68 314.88 2582.59 155.12" style="fill:#fff"/></svg>