<svg id="svg2" xmlns="http://www.w3.org/2000/svg" viewBox="0 0 1247.86 193.52"><title>logo-short-black</title><polygon points="120.68 0 0 96.76 120.68 193.52 120.68 151.41 52.53 96.76 120.68 42.11 120.68 0" style="fill:#202120"/><polygon points="1127.18 0 1247.86 96.76 1127.18 193.52 1127.18 151.41 1195.33 96.76 1127.18 42.11 1127.18 0" style="fill:#202120"/><path d="M165.15,96.76c0-52.64,19.69-82.63,61.35-82.63,31.81,0,47.6,17.86,54.47,42.8L253.5,64.72c-4.12-14.88-10.3-26.1-27.46-26.1C205.44,38.62,197,55.56,197,83v27.46C197,138,205.44,154.9,226,154.9c17.16,0,23.34-11.22,27.46-26.1L281,136.59c-6.87,24.94-22.66,42.8-54.47,42.8C184.84,179.39,165.15,149.4,165.15,96.76Z"/><path d="M405.93,108H359.24v68.67h-30V16.88h30V83.26h46.69V16.88h30V176.64h-30Z"/><path d="M677.61,62h-2.29V176.64H649.68V16.88h36.85l41.89,114.67h2.29V16.88h25.63V176.64H719.49Z"/><path d="M806,96.76c0-52.64,19.69-82.63,61.35-82.63,31.81,0,47.6,17.86,54.47,42.8l-27.47,7.79c-4.12-14.88-10.3-26.1-27.46-26.1-20.6,0-29.07,16.94-29.07,44.41v27.46c0,27.47,8.47,44.41,29.07,44.41,17.16,0,23.34-11.22,27.46-26.1l27.47,7.79c-6.87,24.94-22.66,42.8-54.47,42.8C825.69,179.39,806,149.4,806,96.76Z"/><path d="M973.77,176.64V16.88h100.94V41.6h-71V83.26h68.44V108h-68.44v43.95h71v24.72Z"/><polygon points="563.63 16.88 521.97 16.88 477.11 176.64 507.32 176.64 517.86 136.13 518.31 136.13 556.37 136.13 550 111.64 524.23 111.64 541.2 46.41 543.03 46.41 576.9 176.64 608.72 176.64 563.63 16.88"/></svg>