<svg id="svg2" xmlns="http://www.w3.org/2000/svg" viewBox="0 0 1113.7 967.89"><title>logo-stacked-box-white</title><path d="M321.85,0V470h470V0ZM533.18,180.35,465,235l68.15,54.64v42.12L412.5,235l120.68-96.76Zm47.34,151.41V289.64L648.67,235l-68.15-54.65V138.24L701.2,235Z" style="fill:#fff"/><path d="M102.07,667c0-52.64,19.69-82.62,61.34-82.62,31.82,0,47.61,17.85,54.48,42.8L190.42,635c-4.12-14.88-10.3-26.09-27.46-26.09-20.6,0-29.07,16.93-29.07,44.4v27.46c0,27.47,8.47,44.41,29.07,44.41,17.16,0,23.34-11.22,27.46-26.1l27.47,7.79c-6.87,25-22.66,42.8-54.48,42.8C121.76,749.67,102.07,719.68,102.07,667Z" style="fill:#fff"/><path d="M342.85,678.26H296.16v68.66h-30V587.16h30v66.38h46.69V587.16h30V746.92h-30Z" style="fill:#fff"/><path d="M614.53,632.25h-2.29V746.92H586.6V587.16h36.85l41.89,114.67h2.29V587.16h25.63V746.92H656.41Z" style="fill:#fff"/><path d="M742.92,667c0-52.64,19.69-82.62,61.34-82.62,31.82,0,47.61,17.85,54.48,42.8L831.27,635c-4.12-14.88-10.3-26.09-27.46-26.09-20.6,0-29.07,16.93-29.07,44.4v27.46c0,27.47,8.47,44.41,29.07,44.41,17.16,0,23.34-11.22,27.46-26.1l27.47,7.79c-6.87,25-22.66,42.8-54.48,42.8C762.61,749.67,742.92,719.68,742.92,667Z" style="fill:#fff"/><path d="M910.69,746.92V587.16h100.94v24.72h-71v41.66h68.44v24.72H940.67V722.2h71v24.72Z" style="fill:#fff"/><polygon points="500.55 587.16 458.89 587.16 414.03 746.92 444.24 746.92 454.78 706.41 455.23 706.41 493.29 706.41 486.92 681.92 461.15 681.92 478.12 616.69 479.95 616.69 513.82 746.92 545.64 746.92 500.55 587.16" style="fill:#fff"/><path d="M22.77,805.38H72.44c41.42,0,61.57,28.15,61.57,79.88s-20.15,79.88-61.57,79.88H22.77ZM70.38,941.11c22,0,32.27-14.88,32.27-42.12V871.3c0-27-10.3-41.89-32.27-41.89H52.29v111.7Z" style="fill:#fff"/><path d="M184.13,965.14V942.71h35.93V827.81H184.13V805.38H285.75v22.43H249.81v114.9h35.94v22.43Z" style="fill:#fff"/><path d="M422.85,942.94H421c-5.26,13-15.56,24.95-35.93,24.95-32.27,0-49.21-30-49.21-81.49,0-54.24,19.23-83.77,59.74-83.77,32,0,47.61,18.31,54,42.8l-27.46,7.79c-4.12-13.74-9.84-26.1-26.78-26.1-19.91,0-27.7,16.94-27.7,44.41v25.63c0,27.7,7.33,46.47,29.07,46.47,16.94,0,26.1-11.45,26.1-27.24v-13H393.78V881.6h55.84v83.54H422.85Z" style="fill:#fff"/><path d="M504.55,965.14V942.71h35.94V827.81H504.55V805.38H606.17v22.43H570.24v114.9h35.93v22.43Z" style="fill:#fff"/><path d="M730.45,830.1v135H700.7v-135H652.63V805.38H778.52V830.1Z" style="fill:#fff"/><path d="M990.22,965.14V805.38h30v135h70.72v24.72Z" style="fill:#fff"/><polygon points="896.49 805.38 854.83 805.38 809.97 965.14 840.19 965.14 850.72 924.63 851.17 924.63 889.23 924.63 882.86 900.14 857.09 900.14 874.06 834.91 875.89 834.91 909.77 965.14 941.58 965.14 896.49 805.38" style="fill:#fff"/></svg>