<svg id="svg2" xmlns="http://www.w3.org/2000/svg" viewBox="0 0 1072.16 383.47"><title>logo-stacked-black</title><g style="fill:#202120"><path d="M0,82.63C0,30,19.68,0,61.34,0,93.15,0,109,17.85,115.81,42.8L88.35,50.58c-4.12-14.87-10.3-26.09-27.47-26.09-20.6,0-29.06,16.94-29.06,44.4V96.36c0,27.46,8.46,44.4,29.06,44.4,17.17,0,23.35-11.21,27.47-26.09l27.46,7.78c-6.86,25-22.66,42.8-54.47,42.8C19.68,165.25,0,135.27,0,82.63Z"/><path d="M240.78,93.84H194.09v68.67h-30V2.75h30V69.12h46.69V2.75h30V162.51h-30Z"/><path d="M512.45,47.84h-2.29V162.51H484.53V2.75h36.85l41.88,114.67h2.29V2.75h25.64V162.51H554.34Z"/><path d="M640.85,82.63C640.85,30,660.53,0,702.19,0,734,0,749.8,17.85,756.66,42.8L729.2,50.58c-4.12-14.87-10.3-26.09-27.47-26.09-20.6,0-29.06,16.94-29.06,44.4V96.36c0,27.46,8.46,44.4,29.06,44.4,17.17,0,23.35-11.21,27.47-26.09l27.46,7.78c-6.86,25-22.66,42.8-54.47,42.8C660.53,165.25,640.85,135.27,640.85,82.63Z"/><path d="M808.62,162.51V2.75H909.55V27.47H838.6V69.12H907V93.84H838.6v43.95h70.95v24.72Z"/><polygon points="398.47 2.75 356.82 2.75 311.96 162.51 342.17 162.51 352.71 121.99 353.16 121.99 391.21 121.99 384.84 97.5 359.08 97.5 376.05 32.27 377.88 32.27 411.75 162.51 443.56 162.51 398.47 2.75"/><path d="M4,221H53.67c41.43,0,61.57,28.16,61.57,79.88S95.1,380.72,53.67,380.72H4ZM51.61,356.69c22,0,32.27-14.88,32.27-42.11v-27.7c0-27-10.3-41.88-32.27-41.88H33.53V356.69Z"/><path d="M165.36,380.72V358.29h35.93V243.4H165.36V221H267V243.4H231.05V358.29H267v22.43Z"/><path d="M404.08,358.52h-1.83c-5.27,13.05-15.57,25-35.94,25-32.27,0-49.21-30-49.21-81.48,0-54.25,19.23-83.77,59.74-83.77,32,0,47.61,18.31,54,42.8l-27.47,7.78c-4.12-13.73-9.84-26.09-26.78-26.09-19.91,0-27.69,16.94-27.69,44.4v25.64c0,27.69,7.32,46.46,29.06,46.46,16.94,0,26.1-11.44,26.1-27.24v-13H375V297.18h55.85v83.54H404.08Z"/><path d="M485.78,380.72V358.29h35.94V243.4H485.78V221H587.41V243.4H551.47V358.29h35.94v22.43Z"/><path d="M711.68,245.68v135H681.93v-135H633.86V221H759.75v24.72Z"/><path d="M971.46,380.72V221h30V356h70.72v24.71Z"/><polygon points="877.72 220.96 836.07 220.96 791.21 380.72 821.42 380.72 831.96 340.21 832.4 340.21 870.46 340.21 864.09 315.72 838.33 315.72 855.29 250.49 857.12 250.49 891 380.72 922.81 380.72 877.72 220.96"/></g></svg>